#N canvas 281 190 810 368 12;
#X listbox 30 54 32 0 0 0 - - - 0;
#X obj 531 200 mtof;
#X obj 531 249 *~;
#X obj 531 152 t f b;
#X obj 589 210 vline~;
#X obj 589 234 *~;
#X obj 601 273 delwrite~ r 25;
#X obj 601 296 delread~ r 25;
#X obj 531 225 osc~;
#X obj 30 25 inlet;
#X obj 531 319 outlet~;
#X obj 601 319 outlet~;
#X obj 531 25 inlet;
#X text 574 24 Receive bang;
#X text 710 269 Mini delay for some stereo effect, f 10;
#X obj 272 25 inlet;
#X msg 272 54 resize \$1;
#X floatatom 531 128 5 0 0 0 - - - 0;
#X obj 531 103 tabread \$0-blippers;
#X obj 30 82 array set \$0-blippers;
#X obj 531 54 i;
#X obj 563 54 + 1;
#X obj 531 78 mod 9;
#X msg 589 186 0.8 5 \, 0 165 10;
#X text 28 108 Receives MIDI scale from scaleculator and write values
to array., f 26;
#X text 269 108 Define array and change array size based on scale index
as well as change modulo value accordingly., f 30;
#X obj 272 82 array define \$0-blippers \$1;
#X connect 0 0 19 0;
#X connect 1 0 8 0;
#X connect 2 0 6 0;
#X connect 2 0 10 0;
#X connect 3 0 1 0;
#X connect 3 1 23 0;
#X connect 4 0 5 0;
#X connect 4 0 5 1;
#X connect 5 0 2 1;
#X connect 7 0 11 0;
#X connect 8 0 2 0;
#X connect 9 0 0 0;
#X connect 12 0 20 0;
#X connect 15 0 16 0;
#X connect 15 0 22 1;
#X connect 16 0 26 0;
#X connect 17 0 3 0;
#X connect 18 0 17 0;
#X connect 20 0 21 0;
#X connect 20 0 22 0;
#X connect 21 0 20 1;
#X connect 22 0 18 0;
#X connect 23 0 4 0;
#X coords 0 0 1 1 85 60 0;
