#N canvas 94 241 538 390 12;
#X listbox 50 63 32 0 0 0 - - - 0;
#X obj 50 86 unpack f f f;
#X obj 32 120 f;
#X obj 72 120 f;
#X obj 113 120 f;
#X obj 158 120 random 3;
#X obj 158 144 sel 0 1 2;
#X obj 32 191 mtof;
#X obj 32 240 *~;
#X obj 32 149 t f b;
#X msg 90 177 0.8 5 \, 0 165 5;
#X obj 90 201 vline~;
#X obj 90 225 *~;
#X obj 172 264 delwrite~ r 25;
#X obj 172 287 delread~ r 25;
#X obj 32 216 osc~;
#X obj 50 25 inlet;
#X text 93 25 Receives MIDI scale from scaleculator;
#X obj 32 314 outlet~;
#X obj 172 314 outlet~;
#X obj 158 95 inlet;
#X text 201 95 Receive bang;
#X text 281 260 Mini delay for some stereo effect, f 10;
#X connect 0 0 1 0;
#X connect 1 0 2 1;
#X connect 1 1 3 1;
#X connect 1 2 4 1;
#X connect 2 0 9 0;
#X connect 3 0 9 0;
#X connect 4 0 9 0;
#X connect 5 0 6 0;
#X connect 6 0 2 0;
#X connect 6 1 3 0;
#X connect 6 2 4 0;
#X connect 7 0 15 0;
#X connect 8 0 13 0;
#X connect 8 0 18 0;
#X connect 9 0 7 0;
#X connect 9 1 10 0;
#X connect 10 0 11 0;
#X connect 11 0 12 0;
#X connect 11 0 12 1;
#X connect 12 0 8 1;
#X connect 14 0 19 0;
#X connect 15 0 8 0;
#X connect 16 0 0 0;
#X connect 20 0 5 0;
