#N canvas 47 67 875 402 12;
#X floatatom 171 82 4 1 999 1 BPM - - 0;
#X msg 70 258 tempo \$1 permin;
#X obj 171 131 tgl 15 0 empty empty On/Off 17 7 0 10 #fcfcfc #000000
#000000 0 1;
#X obj 70 316 metro 1 120 permin, f 19;
#X obj 171 22 loadbang;
#X text 79 81 Qtr notes;
#X text 79 98 8th notes;
#X text 72 115 16th notes;
#X obj 248 99 s bpm-eng;
#X obj 248 146 s tog-eng;
#X obj 248 122 s meter-eng;
#X floatatom 171 105 4 1 16 1 Meter - - 0;
#X obj 700 290 mod;
#X obj 700 316 sel 0;
#X obj 700 263 i;
#X obj 732 263 + 1;
#X msg 203 46 4;
#X obj 150 86 bng 10 250 50 0 empty empty empty 17 7 0 10 #ffffff #00faff
#000000;
#X text 339 99 Send BPM value \, meter and toggle for further processing
, f 14;
#X obj 700 341 outlet;
#X obj 171 154 bng 15 250 50 0 empty empty Reset 17 7 0 10 #fcfcfc
#000000 #000000;
#X msg 718 240 0;
#X obj 150 119 bng 10 250 50 0 empty empty empty 17 7 0 10 #ffffff
#ff0400 #000000;
#X text 72 132 32th notes;
#X msg 217 258 tempo \$1 permin;
#X obj 217 316 metro 0.5 120 permin;
#X msg 371 258 tempo \$1 permin;
#X obj 371 316 metro 0.25 120 permin;
#X msg 532 258 tempo \$1 permin;
#X obj 532 316 metro 0.125 120 permin;
#X obj 735 290 r meter-eng;
#X obj 80 287 r tog-eng;
#X obj 227 287 r tog-eng;
#X obj 381 287 r tog-eng;
#X obj 542 287 r tog-eng;
#X obj 70 229 r bpm-eng;
#X obj 217 229 r bpm-eng;
#X obj 371 229 r bpm-eng;
#X obj 532 229 r bpm-eng;
#X obj 248 169 s res-eng;
#X obj 718 215 r res-eng;
#X obj 217 342 outlet;
#X obj 371 342 outlet;
#X obj 532 342 outlet;
#X obj 70 342 outlet;
#X obj 150 102 bng 10 250 50 0 empty empty empty 17 7 0 10 #ffffff
#00ff04 #000000;
#X obj 150 135 bng 10 250 50 0 empty empty empty 17 7 0 10 #ffffff
#9c00ff #000000;
#X text 118 341 Qtr. notes;
#X text 265 341 8th notes;
#X text 423 341 16th notes;
#X text 582 341 32th notes;
#X text 750 340 "1" in bar;
#X obj 150 152 bng 10 250 50 0 empty empty empty 17 7 0 10 #ffffff
#000000 #000000;
#X text 72 149 1st note/ bar, f 10;
#X msg 171 46 90;
#X connect 0 0 8 0;
#X connect 1 0 3 0;
#X connect 2 0 9 0;
#X connect 3 0 14 0;
#X connect 3 0 44 0;
#X connect 3 0 17 0;
#X connect 4 0 54 0;
#X connect 4 0 16 0;
#X connect 11 0 10 0;
#X connect 12 0 13 0;
#X connect 13 0 19 0;
#X connect 13 0 52 0;
#X connect 14 0 15 0;
#X connect 14 0 12 0;
#X connect 15 0 14 1;
#X connect 16 0 11 0;
#X connect 20 0 39 0;
#X connect 21 0 14 1;
#X connect 24 0 25 0;
#X connect 25 0 41 0;
#X connect 25 0 45 0;
#X connect 26 0 27 0;
#X connect 27 0 42 0;
#X connect 27 0 22 0;
#X connect 28 0 29 0;
#X connect 29 0 43 0;
#X connect 29 0 46 0;
#X connect 30 0 12 1;
#X connect 31 0 3 0;
#X connect 32 0 25 0;
#X connect 33 0 27 0;
#X connect 34 0 29 0;
#X connect 35 0 1 0;
#X connect 36 0 24 0;
#X connect 37 0 26 0;
#X connect 38 0 28 0;
#X connect 40 0 21 0;
#X connect 54 0 0 0;
#X coords 0 -1 1 1 170 110 2 70 75;
