#N canvas 318 129 671 518 12;
#X floatatom 171 82 4 1 999 1 BPM - - 0;
#X msg 171 276 tempo \$1 permin;
#X obj 171 128 tgl 15 0 empty empty On/Off 17 7 0 10 #fcfcfc #000000
#000000 0 1;
#X obj 171 306 metro 1 120 permin, f 19;
#X obj 171 22 loadbang;
#X msg 171 46 120;
#X msg 146 46 1, f 2;
#X obj 171 478 outlet;
#X text 59 452 Outlet bang in chosen BPM & note length, f 15;
#X obj 225 170 bng 10 250 50 0 empty empty empty 17 7 0 10 #ffffff
#ff8300 #000000;
#X obj 146 82 vradio 15 1 0 4 empty empty empty 0 -8 0 10 #fcfcfc #000000
#000000 0;
#X text 72 81 Half notes;
#X text 79 96 Qtr notes;
#X text 79 111 8th notes;
#X text 72 126 16th notes;
#X obj 301 252 sel 0 1 2 3;
#X msg 301 276 2, f 1;
#X msg 322 276 1, f 1;
#X msg 344 276 0.5;
#X msg 375 276 0.25;
#X obj 248 82 s bpm-eng;
#X obj 248 128 s tog-eng;
#X obj 248 105 s meter-eng;
#X floatatom 171 105 4 1 16 1 Meter - - 0;
#X obj 271 397 mod;
#X obj 271 423 sel 0;
#X obj 271 370 i;
#X obj 303 371 + 1;
#X msg 203 46 4;
#X obj 149 170 bng 10 250 50 0 empty empty empty 17 7 0 10 #ffffff
#00faff #000000;
#X text 339 81 Send BPM value \, meter and toggle for further processing
, f 14;
#X obj 271 478 outlet;
#X obj 331 478 outlet;
#X text 384 467 Output 1s and rest of the notes according to meter
, f 27;
#X obj 331 461 bng 15 250 50 0 empty empty empty 17 7 0 10 #fcfcfc
#000000 #000000;
#X obj 171 148 bng 15 250 50 0 empty empty Reset 17 7 0 10 #fcfcfc
#000000 #000000;
#X msg 289 327 0;
#X obj 75 170 bng 10 250 50 0 empty empty empty 17 7 0 10 #ffffff #9c00ff
#000000;
#X connect 0 0 1 0;
#X connect 0 0 20 0;
#X connect 1 0 3 0;
#X connect 2 0 3 0;
#X connect 2 0 21 0;
#X connect 3 0 7 0;
#X connect 3 0 26 0;
#X connect 3 0 37 0;
#X connect 4 0 5 0;
#X connect 4 0 6 0;
#X connect 4 0 28 0;
#X connect 5 0 0 0;
#X connect 6 0 10 0;
#X connect 10 0 15 0;
#X connect 15 0 16 0;
#X connect 15 1 17 0;
#X connect 15 2 18 0;
#X connect 15 3 19 0;
#X connect 16 0 3 1;
#X connect 17 0 3 1;
#X connect 18 0 3 1;
#X connect 19 0 3 1;
#X connect 23 0 24 1;
#X connect 23 0 22 0;
#X connect 24 0 25 0;
#X connect 25 0 29 0;
#X connect 25 0 31 0;
#X connect 25 1 9 0;
#X connect 25 1 34 0;
#X connect 26 0 27 0;
#X connect 26 0 24 0;
#X connect 27 0 26 1;
#X connect 28 0 23 0;
#X connect 34 0 32 0;
#X connect 35 0 36 0;
#X connect 36 0 26 1;
#X coords 0 -1 1 1 170 110 2 70 75;
