#N canvas 117 109 358 367 12;
#X obj 95 88 + 0;
#X obj 95 291 sel 1, f 8;
#X obj 49 216 bng 15 250 50 0 empty empty empty 17 7 0 10 #fcfcfc #00ff04
#000000;
#X obj 191 221 bng 10 250 50 0 empty empty empty 17 7 0 10 #ffffff
#202020 #000000;
#X obj 95 17 inlet;
#X obj 209 17 inlet;
#X obj 258 17 inlet;
#X obj 95 317 outlet;
#X floatatom 160 167 5 0 0 0 Pattern\ length - - 0;
#X floatatom 160 191 5 0 100 0 No.\ of\ notes - - 0;
#X obj 160 17 inlet;
#X floatatom 160 143 5 0 12 0 Offset - - 0;
#X text 38 316 Bang on event, f 7;
#X obj 148 317 outlet;
#X text 197 316 Bang on all other events, f 14;
#X obj 95 41 i;
#X obj 125 42 + 1;
#X text 17 17 Take Bang from main metro, f 9;
#X obj 258 72 loadbang;
#X msg 258 99 0, f 1;
#X msg 283 99 16, f 2;
#X msg 315 99 4, f 1;
#X obj 95 111 *;
#X obj 95 266 <;
#X obj 95 242 mod;
#X obj 95 65 mod;
#X connect 0 0 22 0;
#X connect 1 0 2 0;
#X connect 1 0 7 0;
#X connect 1 1 3 0;
#X connect 1 1 13 0;
#X connect 4 0 15 0;
#X connect 5 0 8 0;
#X connect 6 0 9 0;
#X connect 8 0 24 1;
#X connect 8 0 25 1;
#X connect 9 0 22 1;
#X connect 9 0 23 1;
#X connect 10 0 11 0;
#X connect 11 0 0 1;
#X connect 15 0 16 0;
#X connect 15 0 25 0;
#X connect 16 0 15 1;
#X connect 18 0 19 0;
#X connect 18 0 20 0;
#X connect 18 0 21 0;
#X connect 19 0 11 0;
#X connect 20 0 8 0;
#X connect 21 0 9 0;
#X connect 22 0 24 0;
#X connect 23 0 1 0;
#X connect 24 0 23 0;
#X connect 25 0 0 0;
#X coords 0 -1 1 1 160 100 2 45 135;
