#N canvas 415 219 458 399 12;
#X obj 36 217 *~ 0.5;
#X obj 116 217 *~ 0.5;
#X obj 98 275 +~;
#X obj 98 299 *~;
#X obj 98 323 *~ 0.3;
#X obj 207 217 vline~;
#X obj 297 217 vline~;
#X obj 297 241 pow~ 2;
#X obj 207 241 pow~ 8;
#X obj 98 347 outlet~;
#X floatatom 36 99 5 0 0 0 - - - 0;
#X obj 116 139 * 1.5;
#X obj 116 193 phasor~;
#X msg 116 164 \$1;
#X msg 36 164 \$1;
#X obj 36 193 phasor~;
#X obj 126 50 loadbang;
#X msg 126 74 500;
#X obj 36 50 inlet;
#X obj 207 135 f;
#X obj 297 164 * 3.5;
#X msg 297 193 0.5 5 \, 0 \$1 5;
#X msg 207 193 1 5 \, 0 \$1 5;
#X obj 207 50 inlet;
#X obj 116 241 bp~ 0.3;
#X text 33 25 Frequency;
#X text 204 25 Bang 2 Envelope;
#X obj 347 50 inlet;
#X text 345 25 Decay;
#X msg 164 74 150;
#X connect 0 0 2 0;
#X connect 1 0 24 0;
#X connect 2 0 3 0;
#X connect 3 0 4 0;
#X connect 4 0 9 0;
#X connect 5 0 8 0;
#X connect 6 0 7 0;
#X connect 7 0 3 1;
#X connect 8 0 3 1;
#X connect 10 0 11 0;
#X connect 10 0 14 0;
#X connect 11 0 13 0;
#X connect 11 0 24 1;
#X connect 12 0 1 0;
#X connect 13 0 12 0;
#X connect 14 0 15 0;
#X connect 15 0 0 0;
#X connect 16 0 17 0;
#X connect 16 0 29 0;
#X connect 17 0 10 0;
#X connect 18 0 10 0;
#X connect 19 0 22 0;
#X connect 19 0 20 0;
#X connect 20 0 21 0;
#X connect 21 0 6 0;
#X connect 22 0 5 0;
#X connect 23 0 19 0;
#X connect 24 0 2 1;
#X connect 27 0 19 1;
#X connect 29 0 19 0;
