#N canvas 157 75 456 520 12;
#X obj 10 192 dac~, f 12;
#X obj 10 104 clip~ -1 1;
#X obj 91 104 clip~ -1 1;
#X obj 10 48 *~;
#X obj 91 48 *~;
#X obj 234 83 vsl 15 55 0 1 0 0 empty empty empty 0 -9 0 10 #fcfcfc
#000000 #000000 0 1;
#X obj 234 57 bng 15 250 50 0 empty empty Mute -25 7 0 10 #fcfcfc #000000
#000000;
#X obj 168 20 loadbang;
#X msg 234 20 0.7;
#X msg 274 20 0;
#X obj 184 101 tgl 15 0 empty empty DAC 17 7 0 10 #fcfcfc #000000 #000000
0 1;
#X msg 304 159 \; pd dsp \$1;
#X obj 260 59 vu 15 80 empty empty -1 -8 0 10 #404040 #000000 0 0;
#X obj 283 59 vu 15 80 empty empty -1 -8 0 8 #404040 #000000 1 0;
#X obj 50 133 env~;
#X obj 50 156 - 100;
#X obj 131 133 env~;
#X obj 131 156 - 100;
#X obj 10 20 inlet~;
#X obj 91 20 inlet~;
#X obj 91 76 *~ 0.6;
#X obj 10 76 *~ 0.6;
#X obj 216 481 writesf~ 2;
#X msg 230 431 start;
#X msg 184 431 stop;
#X msg 216 375 open -bytes 4 \$1;
#X msg 216 211 dir;
#X obj 216 235 pdcontrol;
#X obj 184 126 tgl 15 0 empty empty Rec. 17 7 0 10 #00faff #000000
#000000 0 1;
#X obj 184 406 sel 0, f 7;
#X obj 216 259 makefilename %s/record_%%d.wav;
#X msg 216 283 set \$1;
#X obj 216 352 makefilename;
#X obj 229 308 bng 15 250 50 0 empty empty empty 17 7 0 10 #fcfcfc
#000000 #000000;
#X obj 229 328 random 1000;
#X obj 184 163 t f f;
#X obj 216 187 sel 1;
#X connect 1 0 0 0;
#X connect 1 0 14 0;
#X connect 1 0 22 0;
#X connect 2 0 0 1;
#X connect 2 0 16 0;
#X connect 2 0 22 1;
#X connect 3 0 21 0;
#X connect 4 0 20 0;
#X connect 5 0 4 1;
#X connect 5 0 3 1;
#X connect 6 0 9 0;
#X connect 7 0 8 0;
#X connect 8 0 5 0;
#X connect 9 0 5 0;
#X connect 10 0 11 0;
#X connect 14 0 15 0;
#X connect 15 0 12 0;
#X connect 16 0 17 0;
#X connect 17 0 13 0;
#X connect 18 0 3 0;
#X connect 19 0 4 0;
#X connect 20 0 2 0;
#X connect 21 0 1 0;
#X connect 23 0 22 0;
#X connect 24 0 22 0;
#X connect 25 0 22 0;
#X connect 26 0 27 0;
#X connect 27 0 30 0;
#X connect 28 0 35 0;
#X connect 29 0 24 0;
#X connect 29 1 23 0;
#X connect 30 0 31 0;
#X connect 31 0 32 0;
#X connect 31 0 33 0;
#X connect 32 0 25 0;
#X connect 33 0 34 0;
#X connect 34 0 32 0;
#X connect 35 0 29 0;
#X connect 35 1 36 0;
#X connect 36 0 26 0;
#X coords 0 -1 1 1 150 100 2 175 50;
