#N canvas 601 234 360 230 12;
#X obj 15 132 dac~, f 21;
#X obj 15 76 *~ 0.3;
#X obj 15 104 clip~ -1 1;
#X obj 92 104 clip~ -1 1;
#X obj 92 76 *~ 0.3;
#X obj 15 48 *~;
#X obj 92 48 *~;
#X obj 234 83 vsl 15 55 0 1 0 0 empty empty empty 0 -9 0 10 #fcfcfc
#000000 #000000 0 1;
#X obj 184 101 bng 15 250 50 0 empty empty Mute 17 7 0 10 #fcfcfc #000000
#000000;
#X obj 233 20 loadbang;
#X msg 154 20 0.7;
#X msg 184 20 0;
#X obj 184 126 tgl 15 0 empty empty DAC 17 7 0 10 #fcfcfc #000000 #000000
0 1;
#X msg 184 170 \; pd dsp \$1;
#X obj 260 59 vu 15 80 empty empty -1 -8 0 10 #404040 #000000 0 0;
#X obj 283 59 vu 15 80 empty empty -1 -8 0 8 #404040 #000000 1 0;
#X obj 15 170 env~;
#X obj 15 193 - 100;
#X obj 92 170 env~;
#X obj 92 193 - 100;
#X obj 15 20 inlet~;
#X obj 92 20 inlet~;
#X connect 1 0 2 0;
#X connect 2 0 0 0;
#X connect 2 0 16 0;
#X connect 3 0 0 1;
#X connect 3 0 18 0;
#X connect 4 0 3 0;
#X connect 5 0 1 0;
#X connect 6 0 4 0;
#X connect 7 0 6 1;
#X connect 7 0 5 1;
#X connect 8 0 11 0;
#X connect 9 0 10 0;
#X connect 10 0 7 0;
#X connect 11 0 7 0;
#X connect 12 0 13 0;
#X connect 16 0 17 0;
#X connect 17 0 14 0;
#X connect 18 0 19 0;
#X connect 19 0 15 0;
#X connect 20 0 5 0;
#X connect 21 0 6 0;
#X coords 0 -1 1 1 150 100 1 175 50;
