#N canvas 360 177 550 262 12;
#X obj 21 14 component_BPM-engine;
#X obj 21 131 component_euclidian-rhythm;
#X obj 191 131 component_euclidian-rhythm;
#X obj 361 131 component_euclidian-rhythm;
#X connect 0 0 1 0;
#X connect 0 0 2 0;
#X connect 0 0 3 0;
