#N canvas 532 78 624 371 12;
#X obj 26 206 master_out;
#X obj 26 63 scaleculator;
#X obj 152 116 bng 35 250 50 0 empty empty empty 17 7 0 10 #00ff04
#000000 #000000;
#X obj 152 67 tgl 15 0 empty empty empty 17 7 0 10 #fcfcfc #000000
#000000 0 1;
#X obj 26 164 blip, f 14;
#X text 137 164 Some blips to test stuff;
#X obj 152 89 metro 90;
#X floatatom 26 39 5 1 115 2 MIDI\ Note mbn_init - 0;
#X floatatom 107 39 5 0 13 2 Scale\ select scl_init - 0;
#X obj 216 207 loadbang;
#X obj 328 188 cowbell, f 14;
#X floatatom 328 162 5 0 0 2 Frequency cbfreq_init - 0;
#X floatatom 423 162 5 0 0 2 Decay cbdec_init - 0;
#X obj 375 94 random 3;
#X obj 375 118 sel 0;
#X obj 375 163 bng 15 250 50 0 empty empty empty 17 7 0 10 #fcfcfc
#000000 #000000;
#X msg 216 231 \; mbn_init 60 \; scl_init 6 \; cbfreq_init 500 \; cbdec_init
150 \;;
#X text 442 187 Needs more cowbell!;
#X connect 1 0 4 0;
#X connect 1 1 4 1;
#X connect 2 0 4 2;
#X connect 2 0 13 0;
#X connect 3 0 6 0;
#X connect 4 0 0 0;
#X connect 4 1 0 1;
#X connect 6 0 2 0;
#X connect 7 0 1 0;
#X connect 8 0 1 1;
#X connect 9 0 16 0;
#X connect 10 0 0 0;
#X connect 10 0 0 1;
#X connect 11 0 10 0;
#X connect 12 0 10 2;
#X connect 13 0 14 0;
#X connect 14 0 15 0;
#X connect 15 0 10 1;
#X coords 0 371 1 370 85 60 0;
