#N canvas 532 78 624 371 12;
#X obj 275 102 bng 35 250 50 0 empty empty empty 17 7 0 10 #00ff04
#000000 #000000;
#X obj 275 53 tgl 15 0 empty empty Toggle\ me! 17 7 0 10 #fcfcfc #000000
#000000 0 1;
#X text 137 164 Some blips to test stuff;
#X obj 275 74 metro 90;
#X floatatom 26 39 5 1 115 2 MIDI\ Note mbn_init - 0;
#X floatatom 177 39 5 0 13 2 Scale\ select scl_init - 0;
#X obj 216 207 loadbang;
#X floatatom 328 162 5 0 0 2 Frequency cbfreq_init - 0;
#X floatatom 423 162 5 0 0 2 Decay cbdec_init - 0;
#X obj 375 94 random 3;
#X obj 375 118 sel 0;
#X obj 375 163 bng 15 250 50 0 empty empty empty 17 7 0 10 #fcfcfc
#000000 #000000;
#X msg 216 231 \; mbn_init 60 \; scl_init 6 \; cbfreq_init 500 \; cbdec_init
150 \;;
#X text 462 187 Needs more cowbell!;
#X obj 26 206 component_master_out;
#X obj 26 164 component_blip;
#X obj 328 188 component_cowbell;
#X obj 26 63 component_scaleculator;
#X connect 0 0 9 0;
#X connect 0 0 15 2;
#X connect 1 0 3 0;
#X connect 3 0 0 0;
#X connect 4 0 17 0;
#X connect 5 0 17 1;
#X connect 6 0 12 0;
#X connect 7 0 16 0;
#X connect 8 0 16 2;
#X connect 9 0 10 0;
#X connect 10 0 11 0;
#X connect 11 0 16 1;
#X connect 15 0 14 0;
#X connect 15 1 14 1;
#X connect 16 0 14 0;
#X connect 16 0 14 1;
#X connect 17 0 15 0;
#X connect 17 1 15 1;
#X coords 0 371 1 370 85 60 0;
